<?xml version="1.0" standalone="no"?>
<!DOCTYPE svg PUBLIC "-//W3C//DTD SVG 20010904//EN"
 "http://www.w3.org/TR/2001/REC-SVG-20010904/DTD/svg10.dtd">
<svg version="1.0" xmlns="http://www.w3.org/2000/svg"
 width="1280.000000pt" height="1280.000000pt" viewBox="0 0 1280.000000 1280.000000"
 preserveAspectRatio="xMidYMid meet">
<metadata>
Created by potrace 1.11, written by Peter Selinger 2001-2013
</metadata>
<g transform="translate(0.000000,1280.000000) scale(0.100000,-0.100000)"
fill="#000000" stroke="none">
<path d="M1379 11446 c-2 -2 -33 -6 -69 -10 -227 -23 -501 -133 -701 -283 -41
-30 -121 -103 -179 -162 -226 -227 -372 -522 -417 -841 -4 -30 -8 -1727 -8
-3770 l0 -3715 23 -110 c55 -265 174 -506 347 -702 52 -60 85 -91 205 -194 87
-75 303 -192 440 -239 72 -24 67 -23 165 -44 39 -8 84 -19 100 -23 17 -4 2305
-9 5085 -10 5168 -2 5064 -2 5245 31 63 12 200 57 284 94 393 173 694 506 825
911 19 59 38 121 41 137 3 16 7 41 10 55 3 15 9 55 14 90 12 76 9 7446 -2
7499 -4 19 -15 69 -24 110 -29 141 -102 323 -180 455 -50 84 -166 225 -254
309 -225 215 -493 346 -823 404 -34 6 -10120 14 -10127 8z"/>
</g>
</svg>
